<svg width="56" height="64" viewBox="0 0 56 64" fill="none" xmlns="http://www.w3.org/2000/svg">
<path d="M32.15 20.3376C26.0625 20.5626 10.9625 22.2751 10.9625 35.0251C10.9625 48.7126 28.25 49.2751 33.9 40.4251C34.7125 41.7001 38.325 45.1126 39.5625 46.2751L46.6625 39.2751C46.6625 39.2751 42.625 36.1126 42.625 32.6751V14.2876C42.625 11.1251 39.5625 4.00012 28.5875 4.00012C17.5875 4.00012 11.75 10.8751 11.75 17.0376L20.9375 17.8876C22.975 11.7001 27.7125 11.7001 27.7125 11.7001C32.8 11.6876 32.15 15.4251 32.15 20.3376ZM32.15 31.1876C32.15 41.1876 21.625 39.6876 21.625 33.3376C21.625 27.4376 27.9375 26.2501 32.15 26.1126V31.1876ZM49.15 51.6251C48.1875 52.8751 40.4 60.0001 27.3375 60.0001C14.275 60.0001 4.27505 51.0626 1.21255 47.3751C0.362547 46.4126 1.33755 45.9626 1.90005 46.3376C11.0625 51.9001 25.375 61.0626 48.4625 50.1251C49.4 49.6626 50.125 50.3751 49.15 51.6251ZM54.125 51.9001C53.3125 53.8751 52.125 55.2501 51.475 55.7751C50.7875 56.3376 50.2875 56.1126 50.6625 55.3001C51.0375 54.4876 53.075 49.4876 52.25 48.4251C51.4375 47.3876 47.625 47.8876 46.25 48.0251C44.9 48.1501 44.625 48.2751 44.5 47.9876C44.2125 47.2751 47.2125 46.0501 49.1875 45.8001C51.15 45.5751 54.3125 45.7001 54.9375 46.5126C55.4 47.1501 54.9375 49.9001 54.125 51.9001Z" fill="#261F22"/>
</svg>
