<svg width="48" height="64" viewBox="0 0 48 64" fill="none" xmlns="http://www.w3.org/2000/svg">
<path d="M39.8375 33.5876C39.8125 29.0001 41.8875 25.5376 46.0875 22.9876C43.7375 19.6251 40.1875 17.7751 35.5 17.4126C31.0625 17.0626 26.2125 20.0001 24.4375 20.0001C22.5625 20.0001 18.2625 17.5376 14.8875 17.5376C7.9125 17.6501 0.5 23.1001 0.5 34.1876C0.5 37.4626 1.1 40.846 2.3 44.3376C3.9 48.9251 9.675 60.1751 15.7 59.9876C18.85 59.9126 21.075 57.7501 25.175 57.7501C29.15 57.7501 31.2125 59.9876 34.725 59.9876C40.8 59.9001 46.025 49.6751 47.55 45.0751C39.4 41.2376 39.8375 33.8251 39.8375 33.5876ZM32.7625 13.0626C36.175 9.01262 35.8625 5.32512 35.7625 4.00012C32.75 4.17512 29.2625 6.05012 27.275 8.36262C25.0875 10.8376 23.8 13.9001 24.075 17.3501C27.3375 17.6001 30.3125 15.9251 32.7625 13.0626Z" fill="#261F22"/>
</svg>
