<svg width="22" height="22" viewBox="0 0 22 22" fill="none" xmlns="http://www.w3.org/2000/svg">
<path d="M18.7309 4.22814C18.7309 4.19376 18.7 4.17314 18.6725 4.1972C18.1328 4.6647 16.83 5.04282 16.665 5.06001C16.6601 5.06219 16.6549 5.06332 16.6495 5.06332C16.6442 5.06332 16.6389 5.06219 16.6341 5.06001C15.6784 3.53376 13.475 3.94626 13.475 3.94626C10.2369 4.63376 10.5944 7.90626 10.6563 8.25001C10.6563 8.2672 10.6563 8.28095 10.6253 8.28095C7.02281 8.4597 3.8775 5.11157 3.52 4.71626C3.51645 4.71194 3.51199 4.70847 3.50694 4.70608C3.50189 4.70369 3.49637 4.70245 3.49078 4.70245C3.48519 4.70245 3.47968 4.70369 3.47462 4.70608C3.46957 4.70847 3.46511 4.71194 3.46156 4.71626C3.05729 5.46573 2.9291 6.33337 3.09936 7.16773C3.26962 8.00208 3.72753 8.75012 4.39313 9.28126C4.39883 9.28459 4.40357 9.28936 4.40686 9.29509C4.41015 9.30082 4.41188 9.30731 4.41188 9.31392C4.41188 9.32053 4.41015 9.32702 4.40686 9.33275C4.40357 9.33848 4.39883 9.34324 4.39313 9.34657C3.92365 9.3319 3.4595 9.24255 3.01813 9.08189C2.9975 9.08189 2.97344 9.08189 2.97344 9.11626C3.02156 11.2475 5.11156 12.21 5.59625 12.4128C5.60313 12.4151 5.60912 12.4195 5.61336 12.4253C5.61761 12.4312 5.61989 12.4382 5.61989 12.4455C5.61989 12.4527 5.61761 12.4598 5.61336 12.4656C5.60912 12.4715 5.60313 12.4759 5.59625 12.4781C5.16189 12.5728 4.71613 12.604 4.27281 12.5709C4.26685 12.5707 4.26091 12.5719 4.25549 12.5744C4.25008 12.5769 4.24533 12.5807 4.24164 12.5854C4.23795 12.5901 4.23543 12.5956 4.23427 12.6014C4.23312 12.6073 4.23337 12.6133 4.235 12.6191C4.67156 14.2622 6.81313 14.9497 7.19813 15.0631C7.20457 15.0645 7.21055 15.0675 7.21547 15.0719C7.22039 15.0763 7.22407 15.0819 7.22615 15.0882C7.22824 15.0944 7.22865 15.1011 7.22735 15.1076C7.22605 15.114 7.22309 15.12 7.21875 15.125C5.89531 16.3075 3.28625 16.6203 2.75 16.6753C2.74288 16.6763 2.73617 16.6792 2.73066 16.6839C2.72516 16.6885 2.72108 16.6946 2.71892 16.7014C2.71675 16.7083 2.71659 16.7156 2.71844 16.7226C2.72029 16.7295 2.72409 16.7358 2.72938 16.7406C4.73 18.1156 9.96875 19.2569 13.97 15.8366C15.1529 14.8056 16.0876 13.5208 16.7043 12.0779C17.3209 10.6351 17.6036 9.07151 17.5313 7.50407C17.5313 7.49835 17.5329 7.49275 17.536 7.48789C17.539 7.48304 17.5433 7.47912 17.5484 7.47657C18.267 7.05453 18.8658 6.45578 19.2878 5.7372C19.2878 5.70282 19.2878 5.6822 19.2363 5.69251C18.8883 5.81478 18.5126 5.83505 18.1534 5.75095C18.1534 5.75095 18.7413 4.73345 18.7309 4.22814Z" stroke="#261F22" stroke-width="1.03125" stroke-linecap="round"/>
</svg>
