<svg width="24" height="24" viewBox="0 0 24 24" fill="none" xmlns="http://www.w3.org/2000/svg">
<path d="M14.8762 4.88251H9.12374C6.9429 4.88251 5.17499 6.65042 5.17499 8.83126V15.1725C5.17499 17.3533 6.9429 19.1213 9.12374 19.1213H14.8762C17.0571 19.1213 18.825 17.3533 18.825 15.1725V8.83126C18.825 6.65042 17.0571 4.88251 14.8762 4.88251Z" stroke="#261F22" stroke-width="1.125" stroke-linecap="round"/>
<path d="M12 15.48C13.9219 15.48 15.48 13.9219 15.48 12C15.48 10.078 13.9219 8.51999 12 8.51999C10.078 8.51999 8.51999 10.078 8.51999 12C8.51999 13.9219 10.078 15.48 12 15.48Z" stroke="#261F22" stroke-width="1.125" stroke-linecap="round"/>
<path d="M16.1662 7.8975C16.4396 7.8975 16.6612 7.67588 16.6612 7.4025C16.6612 7.12912 16.4396 6.9075 16.1662 6.9075C15.8929 6.9075 15.6712 7.12912 15.6712 7.4025C15.6712 7.67588 15.8929 7.8975 16.1662 7.8975Z" stroke="#261F22" stroke-width="1.125"/>
</svg>
