<svg width="24" height="32" viewBox="0 0 24 32" fill="none" xmlns="http://www.w3.org/2000/svg">
<path d="M12.0571 21.3303H23.9943L16.0216 14.2422L12.0571 21.3303Z" fill="#FF7FAC"/>
<path d="M11.9916 10.6709L7.9834 14.2313L11.9698 21.3303H12.0571L16.0216 14.2422L11.9916 10.6709Z" fill="#FF4C80"/>
<path d="M7.98363 14.231L0 21.3299H11.97L7.98363 14.231Z" fill="#FF745B"/>
<path d="M12.0139 21.4065L12.0576 21.3301H11.9702L12.0139 21.4065Z" fill="#FF9D51"/>
<path d="M11.9919 32.0006L15.9455 28.4839L8.08203 28.5167L11.9919 32.0006Z" fill="#FF745B"/>
<path d="M8.04932 28.4948L8.08208 28.5166L15.9456 28.4839L15.9783 28.462L12.0138 21.4067L8.04932 28.4948Z" fill="#FFB955"/>
<path d="M12.0574 21.3301L12.0137 21.4065L15.9782 28.4618L23.9946 21.3301H12.0574Z" fill="#FF9B92"/>
<path d="M11.97 21.3301H0L8.04916 28.4946L12.0137 21.4065L11.97 21.3301Z" fill="#FF9D51"/>
<path d="M0 0.000488281V21.3302L7.98363 14.2312L0 0.000488281Z" fill="#FF9D51"/>
<path d="M11.9918 10.6708L0 0.000488281L7.98363 14.2312L11.9918 10.6708Z" fill="#FFB955"/>
<path d="M23.9944 0.000488281L11.9917 10.6708L16.0217 14.2421L23.9944 0.000488281Z" fill="#E3398B"/>
<path d="M23.9947 21.3302V0.000488281L16.022 14.2421L23.9947 21.3302Z" fill="#F766B7"/>
</svg>
